<svg width="22" height="20" viewBox="0 0 22 20" fill="none" xmlns="http://www.w3.org/2000/svg">
<path d="M10.8333 0.818237C9.35606 0.818237 8.20194 1.32013 7.37098 2.32392C6.54001 3.32771 6.12453 4.61085 6.12453 6.17335C6.11427 8.11464 6.79135 9.65346 8.15578 10.7898C8.33018 10.9413 8.39173 11.1355 8.34044 11.3722L7.98651 12.054C7.87366 12.2813 7.70695 12.4589 7.48639 12.5867C7.26582 12.7145 6.80161 12.8968 6.09375 13.1336C6.06297 13.143 5.4141 13.3372 4.14714 13.716C2.88017 14.0948 2.20565 14.3031 2.12358 14.341C1.26184 14.6724 0.697601 15.018 0.430871 15.3779C0.143624 15.9745 0 17.4849 0 19.9091H21.6667C21.6667 17.4849 21.523 15.9745 21.2358 15.3779C20.9691 15.018 20.4048 14.6724 19.5431 14.341C19.461 14.3031 18.7865 14.0948 17.5195 13.716C16.2526 13.3372 15.6037 13.143 15.5729 13.1336C14.8651 12.8968 14.4008 12.7145 14.1803 12.5867C13.9597 12.4589 13.793 12.2813 13.6802 12.054L13.3262 11.3722C13.2749 11.1355 13.3365 10.9413 13.5109 10.7898C14.8753 9.65346 15.5524 8.11464 15.5421 6.17335C15.5421 4.61085 15.1267 3.32771 14.2957 2.32392C13.4647 1.32013 12.3106 0.818237 10.8333 0.818237Z" fill="#828282"/>
</svg>
